<svg width="1206" height="651" viewBox="0 0 1206 651" fill="none" xmlns="http://www.w3.org/2000/svg">
  <rect width="1206" height="651" rx="6" fill="#0B0D11"/>
  <rect x="8" y="54" width="1190" height="448" stroke="#38536A"/>
  <rect x="8" y="518" width="1190" height="89" stroke="#38536A"/>
  <rect x="0" y="607" width="1206" height="44" fill="#0E1118"/>

  <g font-family="Consolas, 'Courier New', monospace" font-size="14">
    <text x="2" y="24" fill="#7B818A">quota refreshed</text>
    <text x="2" y="42" fill="#7B818A">Filter: </text>
    <text x="58" y="42" fill="#FF66AA">all</text>
    <text x="84" y="42" fill="#7B818A">(p cycle)</text>
    <text x="185" y="42" fill="#7B818A">Search: </text>
    <text x="252" y="42" fill="#5CD478">none</text>
    <text x="287" y="42" fill="#7B818A">(/ edit, f clear)</text>
  </g>

  <g font-family="Consolas, 'Courier New', monospace" font-size="14" font-weight="700" fill="#44C4FF">
    <text x="38" y="70">Active</text>
    <text x="109" y="70">Account</text>
    <text x="526" y="70">5h</text>
    <text x="813" y="70">Week</text>
  </g>

  <rect x="9" y="75" width="1188" height="15" fill="#264E7B"/>
  <text x="11" y="87" font-family="Consolas, 'Courier New', monospace" font-size="14" font-weight="700" fill="#E6E1DA">▶</text>
  <text x="38" y="87" font-family="Consolas, 'Courier New', monospace" font-size="14" fill="#E6E1DA">✓C ✓O</text>
  <text x="109" y="87" font-family="Consolas, 'Courier New', monospace" font-size="14" font-weight="700" fill="#E6E1DA">orbit.alpha@demo.test</text>
  <rect x="311" y="74" width="46" height="18" fill="#FFC452"/>
  <text x="318" y="88" font-family="Consolas, 'Courier New', monospace" font-size="14" font-weight="700" fill="#121212">PLUS</text>
  <rect x="496" y="76" width="92" height="14" fill="#3977B7"/>
  <rect x="588" y="76" width="92" height="14" fill="#5CD478"/>
  <text x="596" y="87" font-family="Consolas, 'Courier New', monospace" font-size="14" font-weight="700" fill="#5CD478">100%</text>
  <text x="639" y="87" font-family="Consolas, 'Courier New', monospace" font-size="14" fill="#7B818A">4h 59m</text>
  <rect x="814" y="76" width="58" height="14" fill="#6558E8"/>
  <rect x="872" y="76" width="42" height="14" fill="#8C6BFF"/>
  <text x="893" y="87" font-family="Consolas, 'Courier New', monospace" font-size="14" font-weight="700" fill="#8C6BFF">60%</text>
  <text x="935" y="87" font-family="Consolas, 'Courier New', monospace" font-size="14" fill="#7B818A">6d 0h</text>

  <g font-family="Consolas, 'Courier New', monospace" font-size="14" fill="#E6E1DA">
    <text x="109" y="104">north.delta@demo.test</text>
    <text x="109" y="121">studio.echo@demo.test</text>
    <text x="109" y="138">ember.foxtrot@demo.test</text>
    <text x="109" y="155">vector.kilo@demo.test</text>
    <text x="109" y="172">ash.rivera@demo.test</text>
    <text x="109" y="189">solstice.juno@demo.test</text>
  </g>

  <rect x="311" y="91" width="46" height="18" fill="#FFC452"/>
  <text x="318" y="105" font-family="Consolas, 'Courier New', monospace" font-size="14" font-weight="700" fill="#121212">PLUS</text>
  <rect x="311" y="108" width="46" height="18" fill="#44C4FF"/>
  <text x="320" y="122" font-family="Consolas, 'Courier New', monospace" font-size="14" font-weight="700" fill="#121212">TEAM</text>
  <rect x="311" y="125" width="46" height="18" fill="#FFC452"/>
  <text x="318" y="139" font-family="Consolas, 'Courier New', monospace" font-size="14" font-weight="700" fill="#121212">PLUS</text>
  <rect x="311" y="142" width="46" height="18" fill="#44C4FF"/>
  <text x="320" y="156" font-family="Consolas, 'Courier New', monospace" font-size="14" font-weight="700" fill="#121212">TEAM</text>
  <rect x="311" y="159" width="46" height="18" fill="#FFC452"/>
  <text x="318" y="173" font-family="Consolas, 'Courier New', monospace" font-size="14" font-weight="700" fill="#121212">PLUS</text>
  <rect x="311" y="176" width="46" height="18" fill="#FFC452"/>
  <text x="318" y="190" font-family="Consolas, 'Courier New', monospace" font-size="14" font-weight="700" fill="#121212">PLUS</text>

  <g font-family="Consolas, 'Courier New', monospace" font-size="14">
    <text x="38" y="155" fill="#E6E1DA">✓C ✓O</text>
  </g>

  <g>
    <rect x="496" y="93" width="57" height="14" fill="#6558E8"/>
    <rect x="553" y="93" width="12" height="14" fill="#8C6BFF"/>
    <text x="596" y="104" font-family="Consolas, 'Courier New', monospace" font-size="14" font-weight="700" fill="#5CD478">66%</text>
    <text x="632" y="104" font-family="Consolas, 'Courier New', monospace" font-size="14" fill="#7B818A">2h 22m</text>

    <rect x="496" y="110" width="92" height="14" fill="#3977B7"/>
    <rect x="588" y="110" width="92" height="14" fill="#5CD478"/>
    <text x="596" y="121" font-family="Consolas, 'Courier New', monospace" font-size="14" font-weight="700" fill="#5CD478">100%</text>
    <text x="639" y="121" font-family="Consolas, 'Courier New', monospace" font-size="14" fill="#7B818A">4h 59m</text>

    <rect x="496" y="127" width="28" height="14" fill="#FFC452"/>
    <rect x="524" y="127" width="28" height="14" fill="#FF9860"/>
    <text x="596" y="138" font-family="Consolas, 'Courier New', monospace" font-size="14" font-weight="700" fill="#FFC452">32%</text>
    <text x="632" y="138" font-family="Consolas, 'Courier New', monospace" font-size="14" fill="#7B818A">27m</text>

    <rect x="496" y="144" width="92" height="14" fill="#3977B7"/>
    <rect x="588" y="144" width="92" height="14" fill="#5CD478"/>
    <text x="596" y="155" font-family="Consolas, 'Courier New', monospace" font-size="14" font-weight="700" fill="#5CD478">100%</text>
    <text x="639" y="155" font-family="Consolas, 'Courier New', monospace" font-size="14" fill="#7B818A">4h 59m</text>

    <rect x="496" y="161" width="92" height="14" fill="#3977B7"/>
    <rect x="588" y="161" width="92" height="14" fill="#5CD478"/>
    <text x="596" y="172" font-family="Consolas, 'Courier New', monospace" font-size="14" font-weight="700" fill="#5CD478">100%</text>
    <text x="639" y="172" font-family="Consolas, 'Courier New', monospace" font-size="14" fill="#7B818A">4h 59m</text>

    <rect x="496" y="178" width="92" height="14" fill="#3977B7"/>
    <rect x="588" y="178" width="92" height="14" fill="#5CD478"/>
    <text x="596" y="189" font-family="Consolas, 'Courier New', monospace" font-size="14" font-weight="700" fill="#5CD478">100%</text>
    <text x="639" y="189" font-family="Consolas, 'Courier New', monospace" font-size="14" fill="#7B818A">4h 59m</text>
  </g>

  <g>
    <rect x="814" y="93" width="58" height="14" fill="#5CD478"/>
    <rect x="872" y="93" width="30" height="14" fill="#8C6BFF"/>
    <text x="893" y="104" font-family="Consolas, 'Courier New', monospace" font-size="14" font-weight="700" fill="#5CD478">88%</text>
    <text x="928" y="104" font-family="Consolas, 'Courier New', monospace" font-size="14" fill="#7B818A">6d 18h</text>

    <rect x="814" y="110" width="18" height="14" fill="#FFC452"/>
    <rect x="832" y="110" width="16" height="14" fill="#FF9860"/>
    <text x="893" y="121" font-family="Consolas, 'Courier New', monospace" font-size="14" font-weight="700" fill="#FFC452">15%</text>
    <text x="928" y="121" font-family="Consolas, 'Courier New', monospace" font-size="14" fill="#7B818A">4d 1h</text>

    <rect x="814" y="127" width="22" height="14" fill="#6558E8"/>
    <rect x="836" y="127" width="12" height="14" fill="#8C6BFF"/>
    <text x="893" y="138" font-family="Consolas, 'Courier New', monospace" font-size="14" font-weight="700" fill="#8C6BFF">42%</text>
    <text x="928" y="138" font-family="Consolas, 'Courier New', monospace" font-size="14" fill="#7B818A">5d 16h</text>

    <text x="893" y="155" font-family="Consolas, 'Courier New', monospace" font-size="14" font-weight="700" fill="#FF6262">0%</text>
    <text x="920" y="155" font-family="Consolas, 'Courier New', monospace" font-size="14" fill="#7B818A">1d 16h</text>

    <text x="893" y="172" font-family="Consolas, 'Courier New', monospace" font-size="14" font-weight="700" fill="#FF6262">0%</text>
    <text x="920" y="172" font-family="Consolas, 'Courier New', monospace" font-size="14" fill="#7B818A">1d 23h</text>

    <text x="893" y="189" font-family="Consolas, 'Courier New', monospace" font-size="14" font-weight="700" fill="#FF6262">0%</text>
    <text x="920" y="189" font-family="Consolas, 'Courier New', monospace" font-size="14" fill="#7B818A">3d 12h</text>
  </g>

  <text x="38" y="198" font-family="Consolas, 'Courier New', monospace" font-size="14" font-weight="700" fill="#FFC452">2 exhausted accounts • press e to show</text>

  <text x="10" y="529" font-family="Consolas, 'Courier New', monospace" font-size="16" font-weight="700" fill="#FF66AA">Details</text>
  <g font-family="Consolas, 'Courier New', monospace" font-size="14">
    <text x="10" y="541" fill="#7B818A">Email:</text>
    <text x="64" y="541" fill="#E6E1DA">orbit.alpha@demo.test</text>
    <text x="260" y="541" fill="#7B818A">Plan:</text>
    <rect x="306" y="528" width="46" height="18" fill="#FFC452"/>
    <text x="314" y="541" fill="#121212" font-weight="700">PLUS</text>
    <text x="387" y="541" fill="#7B818A">Managed:</text>
    <text x="458" y="541" fill="#5CD478" font-weight="700">yes</text>

    <text x="10" y="561" fill="#7B818A">Sources:</text>
    <text x="84" y="561" fill="#E6E1DA">✓C ✓O</text>
    <text x="164" y="561" fill="#7B818A">Account ID:</text>
    <text x="257" y="561" fill="#44C4FF">3f19a2...7c41</text>

    <text x="10" y="581" fill="#7B818A">5h Reset:</text>
    <text x="90" y="581" fill="#E6E1DA">4h 59m</text>
    <text x="164" y="581" fill="#7B818A">Week Reset:</text>
    <text x="265" y="581" fill="#44C4FF">6d 0h</text>

    <text x="10" y="601" fill="#7B818A">Token Exp:</text>
    <text x="99" y="601" fill="#E6E1DA">2026-04-26 13:06</text>
    <text x="243" y="601" fill="#7B818A">Status:</text>
    <text x="304" y="601" fill="#5CD478" font-weight="700">ready</text>
  </g>

  <g font-family="Consolas, 'Courier New', monospace" font-size="14">
    <text x="2" y="628" fill="#44C4FF" font-weight="700">↑↓</text>
    <text x="22" y="628" fill="#E6E1DA">move</text>
    <text x="74" y="628" fill="#44C4FF" font-weight="700">e</text>
    <text x="88" y="628" fill="#E6E1DA">exhausted</text>
    <text x="180" y="628" fill="#44C4FF" font-weight="700">/</text>
    <text x="194" y="628" fill="#E6E1DA">search</text>
    <text x="262" y="628" fill="#44C4FF" font-weight="700">p</text>
    <text x="276" y="628" fill="#E6E1DA">cycle plan</text>
    <text x="374" y="628" fill="#44C4FF" font-weight="700">f</text>
    <text x="388" y="628" fill="#E6E1DA">clear filters</text>
    <text x="506" y="628" fill="#44C4FF" font-weight="700">Enter</text>
    <text x="555" y="628" fill="#E6E1DA">menu</text>
    <text x="605" y="628" fill="#44C4FF" font-weight="700">s</text>
    <text x="619" y="628" fill="#E6E1DA">codex</text>
    <text x="676" y="628" fill="#44C4FF" font-weight="700">o</text>
    <text x="690" y="628" fill="#E6E1DA">opencode</text>
    <text x="779" y="628" fill="#44C4FF" font-weight="700">a</text>
    <text x="793" y="628" fill="#E6E1DA">add</text>
    <text x="832" y="628" fill="#44C4FF" font-weight="700">d</text>
    <text x="846" y="628" fill="#E6E1DA">delete</text>
    <text x="905" y="628" fill="#44C4FF" font-weight="700">r</text>
    <text x="919" y="628" fill="#E6E1DA">refresh</text>
    <text x="986" y="628" fill="#44C4FF" font-weight="700">q</text>
    <text x="1000" y="628" fill="#E6E1DA">quit</text>
  </g>
</svg>
